<svg fill="none" height="64" viewBox="0 0 64 64" width="64" xmlns="http://www.w3.org/2000/svg"><g clip-rule="evenodd" fill="#000" fill-rule="evenodd"><path d="m46 32.7704c-3.5846 0-6.6667 2.8115-6.6667 6.4934 0 3.682 3.0821 6.4935 6.6667 6.4935s6.6667-2.8115 6.6667-6.4935c0-3.6819-3.0821-6.4934-6.6667-6.4934zm-2.6667 6.4934c0-1.2612 1.0967-2.4569 2.6667-2.4569s2.6667 1.1957 2.6667 2.4569c0 1.2613-1.0967 2.457-2.6667 2.457s-2.6667-1.1957-2.6667-2.457z"/><path d="m37.5632 2.52185c1.5514-.6958 3.3222-.6958 4.8736 0l14 6.27896c2.1668.97179 3.5632 3.14009 3.5632 5.53289v17.4681c1.2723 2.2178 2 4.7764 2 7.5153 0 2.9106-.9153 5.7382-2.2597 8.3285-.2795.9261-.7709 1.7441-1.4076 2.4104-1.1967 1.8472-2.5523 3.5276-3.8512 4.9729-1.8218 2.027-3.6371 3.7055-4.9946 4.8763-.6802.5867-1.2492 1.0491-1.6515 1.3673-1.2566.994-2.4753.9457-3.6708 0-.4023-.3182-.9713-.7806-1.6515-1.3673-1.3575-1.1708-3.1728-2.8493-4.9946-4.8763-1.4804-1.6473-3.0346-3.6001-4.3431-5.7572l-8.7386 3.9192c-1.5514.6958-3.3222.6958-4.8736 0l-14.00003-6.2789c-2.16676-.9718-3.56317-3.1401-3.56317-5.5329v-31.53039c0-4.38155 4.46911-7.31239 8.4368-5.53287l10.7509 4.82174c.5172.23194 1.1074.23194 1.6246.00001zm-6.2178 43.15345c-.8281-2.0288-1.3454-4.17-1.3454-6.3582 0-5.7792 3.2398-10.7557 8-13.421v-19.15298l-13.5632 6.08308c-.1438.0645-.2895.123-.4368.1756v35.9679zm10.6546-21.3652c1.2813-.3202 2.6221-.4902 4-.4902 3.7625 0 7.2487 1.2675 10 3.4003v-12.8865c0-.7976-.4655-1.5204-1.1877-1.8443l-12.8123-5.74628zm-22.4368-11.4839c.1438.0645.2895.123.4368.1756v35.9679l-12.81227-5.7463c-.72226-.3239-1.18773-1.0467-1.18773-1.8443v-31.53039c0-1.46052 1.4897-2.43746 2.81228-1.84429zm14.4368 26.4909c0-6.2412 5.2829-11.4607 12-11.4607s12 5.2195 12 11.4607c0 4.4454-3.0292 9.1589-6.4815 13.0001-1.6782 1.8673-3.3629 3.4264-4.6304 4.5196-.3274.2823-.6259.5327-.8881.7484-.2622-.2157-.5607-.4661-.8881-.7484-1.2675-1.0932-2.9522-2.6523-4.6304-4.5196-3.4523-3.8412-6.4815-8.5547-6.4815-13.0001z"/></g></svg>